<?xml version="1.0" encoding="UTF-8" standalone="no"?> <svg id="Capa_1" enable-background="new 0 0 512 512" height="512" viewBox="0 0 512 512" width="512" xmlns="http://www.w3.org/2000/svg"><g><path d="m196 387h120v113.001h-120z" fill="#c3dafd"/><path d="m256 387h60v113.001h-60z" fill="#a1b8d8"/><path d="m0 0h512v405h-512z" fill="#e4f3ff"/><path d="m256 0h256v405h-256z" fill="#c3dafd"/><path d="m301 276h-90v-60h-60v-90h60v-60h90v60h60v90h-60z" fill="#ff5c5c"/><path d="m301 126v-60h-45v210h45v-60h60v-90z" fill="#ff3838"/><path d="m166 482h180v30h-180z" fill="#e4f3ff"/><path d="m256 482h90v30h-90z" fill="#c3dafd"/><path d="m0 310h512v30h-512z" fill="#457899"/><path d="m256 310h256v30h-256z" fill="#365c75"/><path d="m241 246h30v-60h60v-30h-60v-60h-30v60h-60v30h60z" fill="#e4f3ff"/><path d="m271 156v-60h-15v150h15v-60h60v-30z" fill="#c3dafd"/></g></svg>